<svg width="15" height="16" viewBox="0 0 15 16" fill="none" xmlns="http://www.w3.org/2000/svg">
<path d="M9.5 0.833339L5.5 0.833338C1.88 0.833338 0.333337 2.38 0.333337 6L0.333336 10C0.333336 13.62 1.88 15.1667 5.5 15.1667L9.5 15.1667C13.12 15.1667 14.6667 13.62 14.6667 10L14.6667 6.00001C14.6667 2.38001 13.12 0.833339 9.5 0.833339ZM5.5 14.1667C2.42667 14.1667 1.33334 13.0733 1.33334 10L1.33334 6C1.33334 2.92667 2.42667 1.83334 5.5 1.83334L9.5 1.83334C12.5733 1.83334 13.6667 2.92667 13.6667 6.00001L13.6667 10C13.6667 13.0733 12.5733 14.1667 9.5 14.1667L5.5 14.1667Z" fill="#740000"/>
</svg>
